<svg xmlns="http://www.w3.org/2000/svg" xmlns:xlink="http://www.w3.org/1999/xlink" version="1.1" x="0px" y="0px" width="100px" height="100px" viewBox="0 0 100 100" enable-background="new 0 0 100 100" xml:space="preserve">
<g id="Captions">
</g>
<g id="Your_Icon">
	<path d="M36.478,60.17c1.729-1.139,3.732-1.832,5.796-2.002c0.351-0.031,0.703-0.045,1.047-0.045c0.125,0,0.241,0.002,0.349,0.004   c0.2,0.008,0.399,0.018,0.597,0.031l0.012-0.092c0.994-8.77,7.074-16.161,15.492-18.829c0.81-0.258,1.644-0.471,2.479-0.633   c1.414-0.276,2.863-0.416,4.309-0.416c0.983,0,1.959,0.065,2.923,0.193c-2.316-8.972-9.141-16.129-17.915-18.912   c-0.967-0.308-1.959-0.562-2.973-0.759c-1.673-0.326-3.403-0.498-5.175-0.498c-8.112,0-15.382,3.59-20.318,9.266   c5.369,1.795,7.584,6.325,7.584,6.325c-4.058-3.433-9.74-3.493-9.74-3.493c-0.025,0-0.05,0-0.075,0C9.344,30.311,0,39.654,0,51.18   c0,11.527,9.344,20.871,20.871,20.871H30.95c-0.058-0.482-0.088-0.973-0.088-1.469C30.861,66.379,32.962,62.484,36.478,60.17z"/>
	<path d="M87.47,49.861c-0.469-0.117-0.945-0.213-1.431-0.289c-0.467-0.07-0.94-0.121-1.421-0.148   c-0.325-0.02-0.654-0.031-0.985-0.031c-0.019,0-0.038,0-0.057,0c0,0-4.302,0.045-7.375,2.645c0,0,1.677-3.432,5.743-4.789   c-0.19-0.221-0.389-0.435-0.59-0.648c-0.811-0.855-1.696-1.642-2.644-2.348c-0.808-0.601-1.662-1.143-2.554-1.622   c-1.283-0.688-2.647-1.24-4.075-1.642c-0.354-0.1-0.711-0.189-1.073-0.27c-0.353-0.08-0.71-0.149-1.068-0.209   c-1.101-0.183-2.23-0.279-3.382-0.279c-1.341,0-2.65,0.129-3.918,0.377c-0.768,0.15-1.52,0.341-2.252,0.573   c-7.531,2.39-13.166,9.036-14.082,17.114c0.072,0.041,0.146,0.082,0.221,0.125c0.492,0.283,0.947,0.607,1.368,0.963   c0.663,0.559,1.238,1.188,1.728,1.818c0.467,0.604,0.857,1.209,1.173,1.758c0.715,1.242,1.052,2.199,1.052,2.199   c-0.401-0.803-0.912-1.475-1.462-2.041c-0.625-0.641-1.301-1.139-1.924-1.518c-1.248-0.758-2.288-1.039-2.288-1.039   c-0.816-0.232-1.675-0.365-2.561-0.391c-0.097-0.004-0.195-0.006-0.292-0.006c-0.296,0-0.588,0.014-0.877,0.037   c-1.78,0.148-3.432,0.744-4.844,1.674c-2.828,1.863-4.696,5.066-4.696,8.707c0,0.498,0.038,0.988,0.104,1.469   c0.05,0.348,0.115,0.688,0.198,1.021c0.085,0.348,0.186,0.689,0.306,1.021c1.442,4.025,5.29,6.906,9.81,6.906h40.312   c8.729,0,15.805-7.076,15.805-15.805C99.438,57.791,94.345,51.576,87.47,49.861z"/>
</g>
</svg>