<svg xmlns="http://www.w3.org/2000/svg" xmlns:xlink="http://www.w3.org/1999/xlink" version="1.1" id="Layer_1" x="0px" y="0px" width="100.0px" height="100px" viewBox="0 0 288 288" enable-background="new 0 0 288 288" xml:space="preserve">
<path d="M245.496,165.82h-11.668v-48.813h13.901l-42.303-21.795H85.763l-42.315,21.795h13.498v48.813H45.123  c-1.223,0-2.214,0.99-2.214,2.215c0,1.223,0.991,2.213,2.214,2.213h61.478v31.756h127.228v-31.756h11.668  c1.222,0,2.214-0.99,2.214-2.213C247.71,166.811,246.718,165.82,245.496,165.82z M222.211,154.59h-21.513l21.513-21.519V154.59z   M198.155,130.528h21.519l-21.519,21.537V130.528z M195.29,130.528v21.537l-21.523-21.537H195.29z M171.281,133.117l21.46,21.473  h-20.036h-1.424V133.117z M168.364,154.59h-20.036l20.036-20.043V154.59z M145.778,130.528h21.524l-21.524,21.537V130.528z   M142.919,130.528v21.537l-21.518-21.537H142.919z M118.853,133.065l21.529,21.525h-21.529V133.065z M64.504,139.972  c0-11.474,9.295-20.769,20.774-20.769c11.474,0,20.774,9.295,20.774,20.769v25.848H64.504V139.972z M226.258,184.809  c-6.493,1.111-11.595,6.256-12.646,12.768h-77.646v-11.219c0.688-0.275,1.176-0.939,1.176-1.727v-4.703  c0-0.787-0.488-1.451-1.176-1.727v-0.975c0-0.41-0.33-0.738-0.738-0.738c-0.407,0-0.737,0.328-0.737,0.738v1.025  c-0.632,0.297-1.076,0.93-1.076,1.676v4.703c0,0.746,0.444,1.379,1.076,1.676v11.27h-3.388v-13.9  c0.687-0.275,1.176-0.939,1.176-1.725v-4.705c0-0.785-0.489-1.451-1.176-1.727v-0.975c0-0.41-0.33-0.738-0.738-0.738  c-0.407,0-0.737,0.328-0.737,0.738v1.025c-0.632,0.297-1.076,0.93-1.076,1.676v4.705c0,0.744,0.444,1.377,1.076,1.674v13.951h-2.801  c-1.029-2.908-3.398-5.18-6.374-6.061c-0.355-3.768-2.871-6.898-6.293-8.16v-13.107h112.099V184.809z"/>
</svg>