<svg xmlns="http://www.w3.org/2000/svg" xmlns:xlink="http://www.w3.org/1999/xlink" version="1.1" id="Layer_1" x="0px" y="0px" width="100px" height="43.033px" viewBox="0 0 100 43.033" enable-background="new 0 0 100 43.033" xml:space="preserve">
<path fill="#000000" d="M19.189,30.142c-7.748,0-6.602-9.412-6.602-9.412s1.322-2.983,6.602-2.983c5.28,0,6.657,2.983,6.657,2.983  S26.933,30.142,19.189,30.142 M19.212,14.706c-8.092,0-10.447,7.312-10.447,24.472v0.771c3.014,1.944,6.594,3.085,10.447,3.085  c3.853,0,7.434-1.141,10.448-3.085v-0.771C29.661,22.018,27.304,14.706,19.212,14.706"/>
<path fill="#000000" d="M49.884,30.142c-7.747,0-6.602-9.412-6.602-9.412s1.323-2.983,6.602-2.983c5.28,0,6.657,2.983,6.657,2.983  S57.629,30.142,49.884,30.142 M49.91,14.706c-8.093,0-10.448,7.312-10.448,24.472v0.771c3.013,1.944,6.593,3.085,10.448,3.085  c3.852,0,7.432-1.141,10.447-3.085v-0.771C60.357,22.018,58,14.706,49.91,14.706"/>
<path fill="#000000" d="M81.2,30.142c-7.746,0-6.602-9.412-6.602-9.412s1.323-2.983,6.602-2.983c5.281,0,6.657,2.983,6.657,2.983  S88.946,30.142,81.2,30.142 M81.227,14.706c-8.093,0-10.448,7.312-10.448,24.472v0.771c3.014,1.944,6.594,3.085,10.448,3.085  c3.853,0,7.432-1.141,10.447-3.085v-0.771C91.674,22.018,89.316,14.706,81.227,14.706"/>
<path fill="#000000" d="M80.615,4.405c-6.258,0-11.821,2.992-15.353,7.618c-3.532-4.626-9.097-7.618-15.354-7.618  c-6.253,0-11.816,2.99-15.348,7.61c-3.533-4.621-9.095-7.61-15.348-7.61c-10.651,0-19.315,8.665-19.315,19.314  c0,0.711,0.577,1.288,1.288,1.288c0.71,0,1.288-0.577,1.288-1.288c0-9.231,7.509-16.738,16.74-16.738  c5.666,0,10.671,2.84,13.701,7.161c0.292,0.617,0.914,1.046,1.642,1.046c0.706,0,1.311-0.405,1.612-0.993  c3.026-4.352,8.05-7.214,13.741-7.214c5.713,0,10.753,2.885,13.775,7.265c0.31,0.559,0.899,0.942,1.584,0.942  c0.72,0,1.336-0.421,1.631-1.027c3.028-4.333,8.04-7.18,13.716-7.18c9.229,0,16.74,7.507,16.74,16.738  c0,0.711,0.576,1.288,1.286,1.288c0.711,0,1.288-0.577,1.288-1.288C99.93,13.069,91.266,4.405,80.615,4.405z"/>
<path fill="#000000" d="M96.302,6.946C92.346,2.533,86.486,0,80.224,0c-5.824,0-11.3,2.189-15.22,6.046  C61.085,2.191,55.612,0,49.791,0c-5.832,0-11.313,2.194-15.233,6.058C30.637,2.194,25.154,0,19.326,0  C13.063,0,7.204,2.533,3.246,6.947C2.87,7.367,2.941,7.985,3.408,8.325c0.201,0.147,0.443,0.218,0.684,0.218  c0.317,0,0.631-0.125,0.846-0.364c3.543-3.951,8.787-6.218,14.388-6.218c5.602,0,10.845,2.267,14.385,6.218  c0.207,0.229,0.518,0.363,0.848,0.363c0.328,0,0.638-0.134,0.844-0.363c3.542-3.952,8.785-6.218,14.388-6.218  c5.602,0,10.845,2.267,14.385,6.218c0.209,0.231,0.509,0.343,0.814,0.35v0.013h0.001c0.094,0,0.186-0.014,0.274-0.034  c0.05-0.011,0.097-0.029,0.146-0.047c0.045-0.016,0.085-0.037,0.126-0.058c0.056-0.028,0.117-0.042,0.17-0.079  c0.114-0.084,0.206-0.185,0.272-0.296c3.538-3.856,8.715-6.067,14.244-6.067c5.602,0,10.845,2.267,14.385,6.218  c0.378,0.42,1.062,0.483,1.531,0.145C96.605,7.984,96.681,7.367,96.302,6.946z"/>
</svg>