<svg xmlns="http://www.w3.org/2000/svg" xmlns:xlink="http://www.w3.org/1999/xlink" version="1.1" id="&#1057;&#1083;&#1086;&#1081;_1" x="0px" y="0px" width="60px" height="40px" viewBox="0 0 60 40" enable-background="new 0 0 60 40" xml:space="preserve">
<g>
	<path d="M45.994,19.142c-0.458,0-0.878-0.304-1.002-0.77c-0.147-0.554,0.183-1.122,0.735-1.27l5.29-1.411   c0.554-0.149,1.123,0.181,1.27,0.735c0.147,0.554-0.182,1.122-0.733,1.269l-5.292,1.411C46.172,19.131,46.083,19.142,45.994,19.142   z"/>
</g>
<g>
	<path d="M51.314,25.311c-0.104,0-0.207-0.016-0.31-0.047l-5.229-1.635c-0.547-0.172-0.852-0.753-0.68-1.299   c0.171-0.546,0.753-0.852,1.297-0.681l5.23,1.634c0.545,0.171,0.851,0.753,0.68,1.298C52.164,25.025,51.756,25.311,51.314,25.311z"/>
</g>
<g>
	<path d="M47.333,32.059c-0.283,0-0.565-0.117-0.77-0.344l-3.67-4.067c-0.383-0.424-0.35-1.08,0.076-1.463   c0.426-0.385,1.08-0.351,1.466,0.074l3.667,4.066c0.384,0.427,0.351,1.082-0.076,1.465C47.828,31.97,47.58,32.059,47.333,32.059z"/>
</g>
<g>
	<path d="M44.709,14.899c-0.24,0-0.482-0.083-0.679-0.253c-0.433-0.375-0.479-1.03-0.104-1.463l3.589-4.139   c0.374-0.432,1.028-0.478,1.462-0.104c0.434,0.375,0.48,1.029,0.105,1.463l-3.59,4.137C45.289,14.779,45,14.899,44.709,14.899z"/>
</g>
<path d="M37.339,26.313c-0.022-0.793-0.688-1.422-1.481-1.4l-5.948,0.164c-0.068,0.114-0.137,0.225-0.202,0.326  c-0.536,0.854-0.735,1.248-0.535,1.724c0.263,0.628,0.759,1.304,2.443,1.554c0.23,0.033,0.424,0.088,0.598,0.15l3.751-0.104  c0.793-0.024,1.425-0.689,1.401-1.483L37.339,26.313z"/>
<path d="M37.432,21.583c-0.021-0.792-0.687-1.421-1.48-1.4l-6.461,0.179c1.378,1.477,1.299,2.771,0.892,3.792l5.674-0.157  c0.792-0.022,1.424-0.688,1.402-1.481L37.432,21.583z"/>
<path d="M37.524,16.855c-0.022-0.792-0.689-1.424-1.482-1.401l-2.478,0.068c0.055,0.367,0.114,0.729,0.171,1.077  c0.102,0.608-0.079,1.236-0.494,1.727c-0.446,0.526-1.108,0.828-1.816,0.828c-0.279,0-0.56-0.047-0.836-0.136  c-1.458-0.482-2.574-1.73-3.077-3.328l-1.134,0.031c0.126,1.559,0.319,2.038,2.181,3.756l7.591-0.209  c0.792-0.022,1.422-0.689,1.401-1.482L37.524,16.855z"/>
<path d="M37.47,11.916c-0.021-0.793-0.688-1.423-1.48-1.402l-3.141,0.088c0.063,0.421,0.137,0.945,0.221,1.535  c0.099,0.693,0.209,1.475,0.325,2.267l2.699-0.075c0.794-0.023,1.424-0.689,1.401-1.482L37.47,11.916z"/>
<path d="M17.516,20.49c-0.532,1.541-1.102,1.791-1.102,1.791l-8.256,3.781l7.221,10.261l7.778-4.46  c0.241,0.154,0.69,0.217,1.259,0.217c2.418,0,7.014-1.124,7.221-1.164c0.636-0.12,1.249-1.02-0.17-1.229  c-1.894-0.281-2.78-1.083-3.233-2.166c-1.033-2.46,3.512-3.793,0.122-6.848c-2.422-2.188-2.826-2.792-2.996-4.906  c-0.112-1.414,1.108-2.141,1.998-2.141c0.476,0,0.857,0.208,0.893,0.629c0.165,1.987,1.325,3.361,2.658,3.8  c0.179,0.06,0.352,0.093,0.517,0.093c0.832,0,1.419-0.684,1.308-1.36c-0.349-2.097-0.688-4.643-0.893-6.015  c-0.161-1.083-0.89-1.157-1.191-1.157c-0.08,0-7.183,0.058-7.183,0.058c-1.98,0-2.536,1.594-2.536,1.594S18.047,18.949,17.516,20.49  z"/>
<g>
	<path d="M40.38,38.162c-0.574,0-1.04-0.466-1.04-1.039V2.643c0-0.575,0.466-1.041,1.04-1.041s1.039,0.466,1.039,1.041v34.48   C41.419,37.696,40.954,38.162,40.38,38.162z"/>
</g>
</svg>