<svg xmlns="http://www.w3.org/2000/svg" xmlns:xlink="http://www.w3.org/1999/xlink" version="1.1" id="Layer_1" x="0px" y="0px" width="100px" height="94.505px" viewBox="0 0 100 94.505" enable-background="new 0 0 100 94.505" xml:space="preserve">
<polygon points="54.577,20.286 54.577,88.542 68.313,88.542 68.313,94.505 31.686,94.505 31.686,88.542 45.423,88.542   45.423,20.286 15.658,20.286 15.658,14.323 45.423,14.323 45.423,0 54.577,0 54.577,14.323 84.343,14.323 84.343,20.286 "/>
<path d="M15.658,20.286L0,56.875c0,5.014,7.012,9.089,15.658,9.089c8.652,0,15.664-4.075,15.664-9.089L15.658,20.286z M2.598,56.875  l13.06-30.521l13.066,30.521H2.598z"/>
<path d="M84.343,20.286L68.679,56.875c0,5.014,7.012,9.089,15.664,9.089c8.646,0,15.657-4.075,15.657-9.089L84.343,20.286z   M71.276,56.875l13.066-30.521l13.06,30.521H71.276z"/>
</svg>