<svg xmlns="http://www.w3.org/2000/svg" xmlns:xlink="http://www.w3.org/1999/xlink" xmlns:a="http://ns.adobe.com/AdobeSVGViewerExtensions/3.0/" version="1.1" x="0px" y="0px" width="100px" height="100px" viewBox="-4 0 100 100" overflow="visible" enable-background="new -4 0 100 100" xml:space="preserve">
<defs>
</defs>
<path fill="#000000" d="M47.981,0c13.99,0,25.335,11.345,25.335,25.339c0,13.99-11.345,25.335-25.335,25.335  c-13.994,0-25.34-11.345-25.34-25.335C22.642,11.345,33.987,0,47.981,0z"/>
<path fill="#000000" d="M73.624,55H22.337C11.403,55,0,63.59,0,74.523V100h91V74.523C91,63.59,84.554,55,73.624,55z M47.457,93.916  c-9.066,0-16.416-7.349-16.416-16.416s7.35-16.416,16.416-16.416c5.07,0,9.603,2.304,12.615,5.914  c-1.969-1.281-4.298-2.053-6.821-2.053c-6.933,0-12.553,5.621-12.553,12.555s5.62,12.555,12.553,12.555  c2.523,0,4.853-0.771,6.821-2.053C57.06,91.612,52.527,93.916,47.457,93.916z M62.908,85.225l-5.794-3.861l-5.794,3.861l2.897-6.561  L48.423,75h6.761l1.931-5.794L59.045,75h6.761l-5.794,3.664L62.908,85.225z"/>
</svg>