<svg xmlns="http://www.w3.org/2000/svg" xmlns:xlink="http://www.w3.org/1999/xlink" version="1.1" id="Layer_1" x="0px" y="0px" width="100px" height="100px" viewBox="0 0 100 100" enable-background="new 0 0 100 100" xml:space="preserve">
<path d="M75.309,35.79c-1.053,0.287-0.861-7.275-0.861-7.275s-0.248-8.58-1.549-12.961C71.929,9.49,62.048,2.346,50.004,2.346  c-12.018,0-21.878,7.111-22.891,13.163c-1.31,4.371-1.561,13.006-1.561,13.006s0.119,4.627-0.336,6.506  c-0.127,0.521-0.296,0.833-0.526,0.77c-1.054-0.287-1.914,2.299-1.724,3.638c0.193,1.341,1.245,9.094,2.01,11.296  c0.768,2.205,3.066,2.205,3.354,3.159c0.286,0.959,1.722,8.234,1.722,8.234s4.691,8.043,8.52,12.448  c3.833,4.402,9.383,3.733,9.383,3.733h4.091c0,0,1.393,0.167,3.27-0.221c-5.689,2.668-17.238,2.132-20.511-1.633  c-0.423-0.488-0.861-1.027-1.302-1.595c-0.686,1.608-1.456,3.203-2.01,3.757c-0.738,0.74-3.491,2.731-5.921,4.531  c3.953,9.128,12.685,14.512,23.771,14.516c11.198,0,18.755-5.537,22.462-16.453c-1.516-1.127-2.825-2.118-3.301-2.594  c-0.78-0.782-2.531-5.192-3.739-8.405c2.774-3.962,5.183-8.085,5.183-8.085s1.435-7.275,1.724-8.234  c0.286-0.954,2.584-0.954,3.351-3.159c0.767-2.202,1.819-9.956,2.011-11.296C77.223,38.088,76.363,35.503,75.309,35.79z"/>
</svg>