<svg xmlns="http://www.w3.org/2000/svg" xmlns:xlink="http://www.w3.org/1999/xlink" version="1.1" x="0px" y="0px" width="100px" height="100px" viewBox="-12.436 -12.108 100 100" enable-background="new -12.436 -12.108 100 100" xml:space="preserve">
<g id="Layer_1">
</g>
<g id="Calque_2">
	<path d="M38.672-7.041c0.119,0.079,0.753,0,0.911,0c0.832,3.149,0.555,7.468,1.822,10.261c0.139,0.317,1.645,3.605,2.278,4.794   c0.198,0.376,0.951,0.99,1.149,1.367c0.139,0.277,1.268,2.258,1.367,2.516c0.158,0.436,1.386,1.743,1.604,2.278   c0.08,0.238,0.932,1.089,1.129,1.367c0.277,0.376,0.437,1.367,0.693,1.822l0.674-0.218c-0.218-1.704-0.197-3.09-0.674-4.576   c-0.297-0.912-0.713-1.842-0.91-3.189c0.237,0.099,0.653-0.099,0.91,0c0.139,0.06,1.07,0.733,1.367,0.911   c0.139,0.079,0.932,0.535,1.148,0.693c0.496,0.356,1.764,1.882,1.823,2.041c0.079,0.237,0.456,0.693,0.456,0.693   s1.564,2.238,1.584,2.278c0.713,1.426,1.783,5.309,1.842,5.487c0.338,1.466,0.912,4.338,0.912,4.338c0.515,3.645,0,6.438,0,10.261   c0.197-0.158,0.436,0.119,0.674,0c0.139-0.079,1.01-0.931,1.148-1.149c0.139-0.238,0.455-0.911,0.455-0.911   c0.872-2.258,0.674-5.586,0.674-8.676c0.337,0.277,1.348,0.634,1.604,0.931c0.099,0.119,0.753,1.169,0.911,1.367   c0.297,0.336,1.724,2.635,1.822,2.952c0.159,0.515,0.456,2.298,0.456,2.298c0.812,3.981-0.317,9.171-1.129,12.321   c0.198-0.06,0.436,0.317,0.911,0.218c0.1-0.02,1.922-1.367,2.277-1.585c0.179,1.189,0.04,2.437,0.238,3.863   c0.337,2.813,1.367,6.2,0.911,9.825c-0.515,3.883-2.317,9.509-4.338,11.866c-0.298,0.337-1.069,1.188-1.149,1.367   c0,0-0.891,0.911-1.129,1.148c-0.813,0.674-3.525,2.516-3.883,2.733c-0.495,0.298-2.416,1.407-2.754,1.585   c-0.594,0.337-2.476,1.208-2.732,1.387c1.387,0.099,5.486-0.158,6.398,0.674c0,0-0.1,1.485,0,2.733c-13.253,0-26.485,0-39.718,0   c0-1.98-0.178-3.823,1.149-4.338c0.159-0.06,0.555,0.118,0.674,0c0.198-0.179,0.059-0.951,0.238-1.13   c-0.515-0.772-0.991-1.584-1.823-2.06l-1.822-1.822c-0.159-0.218-0.456-0.911-0.456-0.911c-0.139-0.258-0.614-1.011-0.693-1.149   c-0.515-0.813-1.882-3.486-2.06-4.338c-0.04-0.238-0.674-16.046-0.674-19.156c0,0,0.04-0.476,0-0.693l-0.911-2.278   c-0.178-0.159-0.555-0.674-0.693-0.912c0,0-0.356-0.436-0.456-0.693c0-0.02-1.228-1.644-1.367-1.822   c-0.456-0.574-1.803-1.149-2.06-1.822c-0.099-0.258,0.158-0.456,0-0.674c3.09-0.911,5.546,0.06,7.765,1.367   c0.198,0.119,1.763,0.99,2.516,1.367c0.515-2.357,1.07-6.002,0.456-8.914c-0.257-1.129-0.911-2.556-1.367-3.863   c-0.297-0.813-2.991-3.764-3.209-4.338c-0.139-0.396,0.139-0.753,0-1.149c0.356-0.099,0.416,0.218,0.456-0.218   c1.288,0.238,2.377,0.059,3.665,0.456c0.337,0.099,2.12,1.01,2.496,1.129c0,0,3.269,2.496,4.338,3.427   c0.159,0.139,1.189,0.951,1.605,1.149c0.911-3.13,0.574-11.034-0.456-13.47c-0.059-0.099-0.376-0.753-0.456-0.912   c-0.059,0-0.693-1.01-0.911-1.149c0,0-0.476-1.129-0.693-1.822C25.4,9.46,24.548,7.876,24.073,7.103   c0.752-0.178,1.406-0.416,2.04-0.237c0.674,0.178,3.071,1.406,3.665,1.842c0.099,0.059,1.109,1.288,1.129,1.367   c0,0,0.753,0.634,1.149,0.911c0.852,0.594,1.129,1.704,1.822,2.496c0.277,0.336,0.813,0.416,1.149,0.693   c1.783-2.536,0.792-3.705,0.218-6.617c-0.772-3.902-1.268-10.043,1.149-13.015C36.929-6.129,37.959-6.545,38.672-7.041z    M45.744,45.434c-1.386,3.843-2.614,7.626-4.1,11.193c-0.198,0.455-0.119,0.752-0.238,1.366c-0.693,0.079-0.771-0.021-1.129-0.237   c-0.218-0.119-1.525-1.406-1.604-1.585c-0.099-0.258-0.595-0.753-0.693-0.911c-0.139-0.258-0.436-0.912-0.456-0.912   c-0.594-0.931-1.109-2.496-1.565-3.486c-0.198,0.119-0.594,1.189-0.713,1.189c-0.713,6.358,1.149,9.726,2.516,14.381   c-1.684-0.099-3.962-1.129-5.368-2.1c-0.099-0.06-2.377-3.011-3.07-5.666c-0.379-1.449-0.376-2.693-0.912-4.1l-0.475-0.219   c-0.832,2.854-1.625,6.835-0.912,10.718c0.06,0.257,0.832,2.476,1.149,3.188c0.198,0.456,3.05,4.438,3.189,4.576   c0.733,0.595,2.278,1.822,2.278,1.822c1.268,0.595,5.705,0.832,7.548,0.456c0,0,2.852-0.911,3.862-1.604   c0.06-0.04,2.198-1.188,2.753-1.585c0.377-0.297,3.15-3.051,3.645-3.883c0.219-0.396,1.941-2.516,2.279-2.971   c0.197-0.277,0.693-1.149,0.693-1.149c0.713-1.109,0.95-2.477,1.366-3.862c-1.941,0.772-2.417,1.524-5.032,1.822   c0.893-1.704,3.744-6.616,3.428-8.954l-0.455-0.871c-1.109,1.803-2.299,3.248-3.883,4.576c-0.436,0.355-1.09,1.168-1.585,1.366   c-0.277,0.099-0.991,0.614-1.149,0.673c-0.258,0.1-0.436-0.118-0.674,0c0.416-2.852,1.486-5.783,0.912-9.349   c0,0-0.436-2.318-0.693-2.972c-0.139-0.356-0.198-0.238-0.455-0.911H45.744z"/>
</g>
</svg>