<?xml version="1.0" encoding="utf-8"?>
<!-- Generator: Adobe Illustrator 14.0.0, SVG Export Plug-In . SVG Version: 6.00 Build 43363)  -->
<!DOCTYPE svg PUBLIC "-//W3C//DTD SVG 1.0//EN" "http://www.w3.org/TR/2001/REC-SVG-20010904/DTD/svg10.dtd">
<svg version="1.0" id="Layer_1" xmlns="http://www.w3.org/2000/svg" xmlns:xlink="http://www.w3.org/1999/xlink" x="0px" y="0px"
	 width="100px" height="82.922px" viewBox="0 0 100 82.922" enable-background="new 0 0 100 82.922" xml:space="preserve">
<g>
	<path d="M77.958,55.156H11.281C5.061,55.156,0,50.095,0,43.873c0-5.278,3.642-9.722,8.545-10.945
		c2.189-5.471,7.248-9.386,13.149-10.09C22.315,10.14,32.841,0,45.693,0c9.415,0,17.821,5.537,21.721,13.758
		c3.205-1.752,6.812-2.685,10.544-2.685C90.111,11.073,100,20.96,100,33.115C100,45.266,90.111,55.156,77.958,55.156L77.958,55.156z
		 M11.209,40.371c-1.898,0.042-3.431,1.598-3.431,3.502c0,1.93,1.571,3.501,3.502,3.501h66.677c7.865,0,14.26-6.397,14.26-14.259
		c0-7.862-6.395-14.26-14.26-14.26c-3.684,0-7.18,1.405-9.846,3.951l-5.098,4.871l-1.404-6.906
		c-1.526-7.526-8.223-12.988-15.917-12.988c-8.958,0-16.247,7.286-16.247,16.244c0,0.728,0.054,1.482,0.157,2.249l0.731,5.284
		l-5.257-0.923c-0.496-0.086-0.992-0.131-1.473-0.131c-4.001,0-7.479,2.842-8.266,6.757l-0.65,3.229l-3.291-0.106
		C11.334,40.38,11.272,40.377,11.209,40.371L11.209,40.371z"/>
</g>
<path d="M29.467,63.657L29.467,63.657L29.467,63.657L29.467,63.657L29.467,63.657L29.467,63.657L29.467,63.657L29.467,63.657
	L29.467,63.657L29.467,63.657L29.467,63.657L29.467,63.657L29.467,63.657L29.467,63.657L29.467,63.657L29.467,63.657L29.467,63.657
	L29.467,63.657L29.467,63.657L29.467,63.657z M29.467,63.657L29.467,63.657L29.467,63.657L29.467,63.657L29.467,63.657
	L29.467,63.657L29.467,63.657L29.467,63.657L29.467,63.657L29.467,63.657L29.467,63.657z M29.467,63.657L29.467,63.657
	L29.467,63.657L29.467,63.657L29.467,63.657L29.467,63.657L29.467,63.657z M29.467,63.657L29.467,63.657L29.467,63.657
	L29.467,63.657L29.467,63.657z M29.467,63.657L29.467,63.657L29.467,63.657L29.467,63.657L29.467,63.657z"/>
<path d="M29.467,63.657c-1.325,5.062-0.567,7.573-0.936,13.012c-0.356,5.271-5.729,7.675-9.689,5.39
	c-3.962-2.287-4.562-8.14-0.175-11.086C23.191,67.938,25.74,67.337,29.467,63.657z"/>
<path d="M52.744,63.657L52.744,63.657L52.744,63.657L52.744,63.657L52.744,63.657L52.744,63.657L52.744,63.657L52.744,63.657
	L52.744,63.657L52.744,63.657L52.744,63.657L52.744,63.657L52.744,63.657L52.744,63.657L52.744,63.657L52.744,63.657L52.744,63.657
	L52.744,63.657L52.744,63.657L52.744,63.657z M52.744,63.657L52.744,63.657L52.744,63.657L52.744,63.657L52.744,63.657
	L52.744,63.657L52.744,63.657L52.744,63.657L52.744,63.657L52.744,63.657L52.744,63.657z M52.744,63.657L52.744,63.657
	L52.744,63.657L52.744,63.657L52.744,63.657L52.744,63.657L52.744,63.657z M52.744,63.657L52.744,63.657L52.744,63.657
	L52.744,63.657L52.744,63.657z M52.744,63.657L52.744,63.657L52.744,63.657L52.744,63.657L52.744,63.657z"/>
<path d="M56.629,63.657c-1.324,5.062-0.566,7.573-0.936,13.012c-0.355,5.271-5.729,7.675-9.688,5.39
	c-3.962-2.287-4.268-8.14,0.119-11.086C50.65,67.938,52.902,67.337,56.629,63.657z"/>
<path d="M77.456,63.657L77.456,63.657L77.456,63.657L77.456,63.657L77.456,63.657L77.456,63.657L77.456,63.657L77.456,63.657
	L77.456,63.657L77.456,63.657L77.456,63.657L77.456,63.657L77.456,63.657L77.456,63.657L77.456,63.657L77.456,63.657L77.456,63.657
	L77.456,63.657L77.456,63.657L77.456,63.657z M77.456,63.657L77.456,63.657L77.456,63.657L77.456,63.657L77.456,63.657
	L77.456,63.657L77.456,63.657L77.456,63.657L77.456,63.657L77.456,63.657L77.456,63.657z M77.456,63.657L77.456,63.657
	L77.456,63.657L77.456,63.657L77.456,63.657L77.456,63.657L77.456,63.657z M77.456,63.657L77.456,63.657L77.456,63.657
	L77.456,63.657L77.456,63.657z M77.456,63.657L77.456,63.657L77.456,63.657L77.456,63.657L77.456,63.657z"/>
<path d="M84.383,63.657c-1.324,5.062-0.566,7.573-0.936,13.012c-0.356,5.271-5.729,7.675-9.688,5.39
	c-3.963-2.287-4.562-8.14-0.176-11.086C78.105,67.938,80.654,67.337,84.383,63.657z"/>
</svg>
