<svg xmlns="http://www.w3.org/2000/svg" xmlns:xlink="http://www.w3.org/1999/xlink" version="1.1" id="Layer_1" x="0px" y="0px" width="100px" height="75.0px" viewBox="0 0 1024 768" enable-background="new 0 0 1024 768" xml:space="preserve">
<path fill="#000000" d="M517.784,337.783c-0.102-0.006-0.201-0.016-0.306-0.016c-2.657,0-4.499,2.155-4.499,4.812  c0,2.622,1.02,4.75,5.02,4.808v0.011c19,0.26,35.621,16.492,35.621,36.413c0,20.08-16.492,36.648-36.572,36.648  c-19.163,0-35.073-14.459-36.473-33.459h8.454l-13.049-21.693L462.933,387h8c1.417,24,21.485,43.084,45.958,43.084  c25.388,0,46.043-20.771,46.043-46.158C562.934,358.837,542.762,338.262,517.784,337.783z"/>
<circle cx="517.05" cy="410.08" r="2.888"/>
<circle cx="536.144" cy="366.419" r="2.888"/>
<circle cx="536.144" cy="401.072" r="2.888"/>
<circle cx="542.561" cy="384.067" r="2.887"/>
<path fill="#000000" d="M522,360.208c0-2.261-1.822-4.208-4.083-4.208h-0.877c-2.262,0-4.04,1.947-4.04,4.208v24.207l-11.855,11.837  c-1.75,1.749-1.661,4.584-0.003,6.334c1.658,1.749,4.567,1.749,6.316,0l13.099-13.112c0.102-0.103,0.19-0.21,0.281-0.32  c0.723-0.738,1.162-1.749,1.162-2.863V360.208z"/>
</svg>