<svg xmlns="http://www.w3.org/2000/svg" xmlns:xlink="http://www.w3.org/1999/xlink" version="1.1" id="Your_Icon" x="0px" y="0px" width="100px" height="100px" viewBox="0 0 100 100" enable-background="new 0 0 100 100" xml:space="preserve">
<path d="M23.545,51.412c6.389-0.23,12.777-0.461,19.166-0.69c-1.191-1.97-1.489-3.692-3.767-3.989  c-3.408-0.443-6.816-0.888-10.225-1.332c-6.611-0.861-13.224-1.723-19.836-2.584C9.476,43.773,18.728,51.585,23.545,51.412z"/>
<path d="M0,31.042c2.07,3.421,12.547,10.877,15.536,11.261c8.17,1.052,16.339,2.103,24.509,3.153  c-1.6-2.644-1.971-4.408-4.861-5.167c-4.198-1.104-8.397-2.208-12.596-3.311C15.058,35,7.529,33.021,0,31.042z"/>
<path d="M29.752,57.642c4.909-1.047,9.818-2.094,14.729-3.141c-0.956-1.577-0.959-2.526-2.747-2.446  c-2.903,0.129-5.806,0.259-8.708,0.388c-5.348,0.238-10.695,0.478-16.042,0.716C17.584,53.803,25.901,58.462,29.752,57.642z"/>
<path d="M41.337,68.959c2.699-1.754,3.424-3.641,4.959-6.51c1.722-3.217,0.593-3.697-1.33-6.881  c-0.196-0.324-2.754,0.109-3.042,0.427c-0.352,0.386-0.117,2.571-0.139,3.062C41.636,62.357,41.486,65.658,41.337,68.959z"/>
<path d="M40.709,56.34c-1.789,0.382-4.057,0.091-4.513,1.994c-0.647,2.704-1.295,5.409-1.942,8.113  C38.613,65.406,40.558,60.175,40.709,56.34z"/>
<path d="M35.201,57.601c-4.313,0.921-4.223,2.174-6.072,6.214C32.062,63.536,34.798,60.345,35.201,57.601z"/>
<path d="M91.116,42.816c-6.612,0.861-13.225,1.723-19.837,2.584c-3.408,0.444-6.816,0.889-10.225,1.332  c-2.276,0.297-2.575,2.02-3.766,3.989c6.389,0.229,12.777,0.46,19.166,0.69C81.271,51.585,90.523,43.773,91.116,42.816z"/>
<path d="M77.413,36.978c-4.199,1.104-8.397,2.208-12.597,3.311c-2.89,0.759-3.262,2.523-4.86,5.167  c8.169-1.051,16.339-2.102,24.508-3.153c2.989-0.384,13.467-7.84,15.536-11.261C92.471,33.021,84.942,35,77.413,36.978z"/>
<path d="M83.017,53.158c-5.347-0.238-10.694-0.478-16.042-0.716c-2.903-0.129-5.806-0.259-8.709-0.388  c-1.788-0.08-1.79,0.869-2.746,2.446c4.909,1.047,9.818,2.094,14.729,3.141C74.098,58.462,82.415,53.803,83.017,53.158z"/>
<path d="M58.215,59.058c-0.022-0.491,0.213-2.677-0.139-3.062c-0.289-0.317-2.846-0.751-3.042-0.427  c-1.924,3.184-3.052,3.664-1.33,6.881c1.535,2.869,2.259,4.756,4.959,6.51C58.514,65.658,58.364,62.357,58.215,59.058z"/>
<path d="M65.745,66.447c-0.647-2.704-1.295-5.409-1.942-8.113c-0.455-1.903-2.724-1.612-4.512-1.994  C59.441,60.175,61.387,65.406,65.745,66.447z"/>
<path d="M70.871,63.814c-1.851-4.04-1.76-5.293-6.072-6.214C65.202,60.345,67.938,63.536,70.871,63.814z"/>
</svg>